<svg width="145" height="23" viewBox="0 0 145 23" fill="none" xmlns="http://www.w3.org/2000/svg">
<path d="M18.0817 0.181818V22H14.5661L4.28551 7.13849H4.1044V22H0.151989V0.181818H3.68892L13.9588 15.054H14.1506V0.181818H18.0817ZM28.8622 22.3196C27.2216 22.3196 25.8047 21.9787 24.6115 21.2969C23.4254 20.608 22.5127 19.6349 21.8735 18.3778C21.2343 17.1136 20.9147 15.6257 20.9147 13.9141C20.9147 12.2308 21.2343 10.7536 21.8735 9.48224C22.5199 8.20383 23.4218 7.20952 24.5795 6.49929C25.7372 5.78196 27.0973 5.4233 28.6598 5.4233C29.6683 5.4233 30.62 5.58665 31.5149 5.91335C32.4169 6.23295 33.2123 6.73011 33.9012 7.40483C34.5973 8.07955 35.1441 8.93892 35.5419 9.98295C35.9396 11.0199 36.1385 12.2557 36.1385 13.6903V14.8729H22.7258V12.2734H32.4417C32.4346 11.5348 32.2748 10.8778 31.9623 10.3026C31.6498 9.72017 31.213 9.26207 30.652 8.92827C30.098 8.59446 29.4517 8.42756 28.713 8.42756C27.9247 8.42756 27.2322 8.61932 26.6356 9.00284C26.039 9.37926 25.5738 9.87642 25.24 10.4943C24.9133 11.1051 24.7464 11.7763 24.7393 12.5078V14.777C24.7393 15.7287 24.9133 16.5455 25.2613 17.2273C25.6093 17.902 26.0958 18.4205 26.7208 18.7827C27.3458 19.1378 28.0774 19.3153 28.9154 19.3153C29.4765 19.3153 29.9843 19.2372 30.4389 19.081C30.8934 18.9176 31.2876 18.6797 31.6214 18.3672C31.9552 18.0547 32.2074 17.6676 32.3778 17.206L35.9787 17.6108C35.7514 18.5625 35.3181 19.3935 34.6789 20.1037C34.0468 20.8068 33.2372 21.3537 32.25 21.7443C31.2627 22.1278 30.1335 22.3196 28.8622 22.3196ZM41.6029 5.63636L44.9055 11.6768L48.2613 5.63636H52.3415L47.409 13.8182L52.4268 22H48.3678L44.9055 16.1087L41.4751 22H37.3842L42.37 13.8182L37.512 5.63636H41.6029ZM61.3536 22.3196C59.713 22.3196 58.2961 21.9787 57.1029 21.2969C55.9168 20.608 55.0042 19.6349 54.365 18.3778C53.7257 17.1136 53.4061 15.6257 53.4061 13.9141C53.4061 12.2308 53.7257 10.7536 54.365 9.48224C55.0113 8.20383 55.9132 7.20952 57.0709 6.49929C58.2286 5.78196 59.5887 5.4233 61.1512 5.4233C62.1597 5.4233 63.1114 5.58665 64.0063 5.91335C64.9083 6.23295 65.7037 6.73011 66.3927 7.40483C67.0887 8.07955 67.6355 8.93892 68.0333 9.98295C68.431 11.0199 68.6299 12.2557 68.6299 13.6903V14.8729H55.2172V12.2734H64.9331C64.926 11.5348 64.7662 10.8778 64.4537 10.3026C64.1412 9.72017 63.7044 9.26207 63.1434 8.92827C62.5894 8.59446 61.9431 8.42756 61.2044 8.42756C60.4161 8.42756 59.7236 8.61932 59.127 9.00284C58.5304 9.37926 58.0652 9.87642 57.7314 10.4943C57.4047 11.1051 57.2378 11.7763 57.2307 12.5078V14.777C57.2307 15.7287 57.4047 16.5455 57.7527 17.2273C58.1007 17.902 58.5873 18.4205 59.2123 18.7827C59.8373 19.1378 60.5688 19.3153 61.4069 19.3153C61.9679 19.3153 62.4757 19.2372 62.9303 19.081C63.3848 18.9176 63.779 18.6797 64.1128 18.3672C64.4466 18.0547 64.6988 17.6676 64.8692 17.206L68.4701 17.6108C68.2428 18.5625 67.8096 19.3935 67.1704 20.1037C66.5382 20.8068 65.7286 21.3537 64.7414 21.7443C63.7542 22.1278 62.6249 22.3196 61.3536 22.3196ZM75.149 0.181818V22H71.2925V0.181818H75.149ZM85.7591 22.3196C84.1184 22.3196 82.7015 21.9787 81.5083 21.2969C80.3223 20.608 79.4096 19.6349 78.7704 18.3778C78.1312 17.1136 77.8116 15.6257 77.8116 13.9141C77.8116 12.2308 78.1312 10.7536 78.7704 9.48224C79.4167 8.20383 80.3187 7.20952 81.4764 6.49929C82.6341 5.78196 83.9941 5.4233 85.5566 5.4233C86.5652 5.4233 87.5169 5.58665 88.4118 5.91335C89.3137 6.23295 90.1092 6.73011 90.7981 7.40483C91.4941 8.07955 92.041 8.93892 92.4387 9.98295C92.8365 11.0199 93.0353 12.2557 93.0353 13.6903V14.8729H79.6227V12.2734H89.3386C89.3315 11.5348 89.1717 10.8778 88.8592 10.3026C88.5467 9.72017 88.1099 9.26207 87.5488 8.92827C86.9949 8.59446 86.3485 8.42756 85.6099 8.42756C84.8216 8.42756 84.1291 8.61932 83.5325 9.00284C82.9359 9.37926 82.4707 9.87642 82.1369 10.4943C81.8102 11.1051 81.6433 11.7763 81.6362 12.5078V14.777C81.6362 15.7287 81.8102 16.5455 82.1582 17.2273C82.5062 17.902 82.9927 18.4205 83.6177 18.7827C84.2427 19.1378 84.9743 19.3153 85.8123 19.3153C86.3734 19.3153 86.8812 19.2372 87.3358 19.081C87.7903 18.9176 88.1845 18.6797 88.5183 18.3672C88.8521 18.0547 89.1042 17.6676 89.2747 17.206L92.8755 17.6108C92.6483 18.5625 92.215 19.3935 91.5758 20.1037C90.9437 20.8068 90.1341 21.3537 89.1468 21.7443C88.1596 22.1278 87.0304 22.3196 85.7591 22.3196ZM99.5545 12.4119V22H95.6979V5.63636H99.384V8.4169H99.5758C99.9522 7.50071 100.552 6.77273 101.376 6.23295C102.207 5.69318 103.233 5.4233 104.455 5.4233C105.584 5.4233 106.568 5.66477 107.406 6.14773C108.251 6.63068 108.905 7.33026 109.366 8.24645C109.835 9.16264 110.066 10.2741 110.059 11.581V22H106.202V12.1776C106.202 11.0838 105.918 10.228 105.35 9.61008C104.789 8.99219 104.011 8.68324 103.017 8.68324C102.342 8.68324 101.742 8.83239 101.216 9.13068C100.698 9.42187 100.29 9.84446 99.9913 10.3984C99.7001 10.9524 99.5545 11.6236 99.5545 12.4119ZM120.517 22.3196C118.883 22.3196 117.481 21.9609 116.309 21.2436C115.144 20.5263 114.246 19.5355 113.614 18.2713C112.989 17 112.676 15.5369 112.676 13.8821C112.676 12.2202 112.996 10.7536 113.635 9.48224C114.274 8.20383 115.176 7.20952 116.341 6.49929C117.513 5.78196 118.898 5.4233 120.496 5.4233C121.824 5.4233 122.999 5.66832 124.022 6.15838C125.052 6.64134 125.872 7.3267 126.483 8.21449C127.094 9.09517 127.442 10.125 127.527 11.304H123.841C123.692 10.5156 123.337 9.85866 122.776 9.3331C122.222 8.80043 121.479 8.53409 120.549 8.53409C119.761 8.53409 119.068 8.74716 118.472 9.17329C117.875 9.59233 117.41 10.196 117.076 10.9844C116.749 11.7727 116.586 12.7173 116.586 13.8182C116.586 14.9332 116.749 15.892 117.076 16.6946C117.403 17.4901 117.861 18.1044 118.45 18.5376C119.047 18.9638 119.746 19.1768 120.549 19.1768C121.117 19.1768 121.625 19.0703 122.072 18.8572C122.527 18.6371 122.907 18.321 123.212 17.9091C123.518 17.4972 123.727 16.9964 123.841 16.407H127.527C127.435 17.5646 127.094 18.5909 126.504 19.4858C125.915 20.3736 125.112 21.0696 124.097 21.5739C123.081 22.071 121.888 22.3196 120.517 22.3196ZM137.338 22.3196C135.697 22.3196 134.28 21.9787 133.087 21.2969C131.901 20.608 130.989 19.6349 130.349 18.3778C129.71 17.1136 129.391 15.6257 129.391 13.9141C129.391 12.2308 129.71 10.7536 130.349 9.48224C130.996 8.20383 131.898 7.20952 133.055 6.49929C134.213 5.78196 135.573 5.4233 137.136 5.4233C138.144 5.4233 139.096 5.58665 139.991 5.91335C140.893 6.23295 141.688 6.73011 142.377 7.40483C143.073 8.07955 143.62 8.93892 144.018 9.98295C144.415 11.0199 144.614 12.2557 144.614 13.6903V14.8729H131.202V12.2734H140.918C140.91 11.5348 140.751 10.8778 140.438 10.3026C140.126 9.72017 139.689 9.26207 139.128 8.92827C138.574 8.59446 137.927 8.42756 137.189 8.42756C136.4 8.42756 135.708 8.61932 135.111 9.00284C134.515 9.37926 134.05 9.87642 133.716 10.4943C133.389 11.1051 133.222 11.7763 133.215 12.5078V14.777C133.215 15.7287 133.389 16.5455 133.737 17.2273C134.085 17.902 134.572 18.4205 135.197 18.7827C135.822 19.1378 136.553 19.3153 137.391 19.3153C137.952 19.3153 138.46 19.2372 138.915 19.081C139.369 18.9176 139.763 18.6797 140.097 18.3672C140.431 18.0547 140.683 17.6676 140.854 17.206L144.454 17.6108C144.227 18.5625 143.794 19.3935 143.155 20.1037C142.523 20.8068 141.713 21.3537 140.726 21.7443C139.739 22.1278 138.609 22.3196 137.338 22.3196Z" fill="white"/>
</svg>
